<svg xmlns="http://www.w3.org/2000/svg" width="56" height="56" viewBox="0 0 56 56">
    <defs>
        <clipPath id="67495lzs7a">
            <path data-name="사각형 3329" style="fill:none" d="M0 0h56v56H0z"/>
        </clipPath>
        <clipPath id="hykaxj8b2b">
            <path data-name="사각형 3327" transform="translate(8 8)" style="fill:none" d="M0 0h40v40H0z"/>
        </clipPath>
    </defs>
    <g data-name="그룹 5831" style="clip-path:url(#67495lzs7a)">
        <g data-name="그룹 5830">
            <g data-name="그룹 5829" style="clip-path:url(#67495lzs7a)">
                <g data-name="그룹 5825" style="opacity:.5">
                    <g data-name="그룹 5824">
                        <g data-name="그룹 5823" style="clip-path:url(#67495lzs7a)">
                            <path data-name="사각형 3324" style="fill:none" d="M0 0h56v56H0z"/>
                        </g>
                    </g>
                </g>
                <g data-name="그룹 5828" style="opacity:.4">
                    <g data-name="그룹 5827">
                        <g data-name="그룹 5826" style="clip-path:url(#hykaxj8b2b)">
                            <path data-name="사각형 3326" transform="translate(8 8)" style="fill:none" d="M0 0h40v40H0z"/>
                        </g>
                    </g>
                </g>
                <path data-name="패스 12067" d="M32 40.5a3 3 0 1 1-3-3 3 3 0 0 1 3 3" style="fill:#191919"/>
                <path data-name="패스 12068" d="M32 28.25a3 3 0 1 1-3-3 3 3 0 0 1 3 3" style="fill:#191919"/>
                <path data-name="패스 12069" d="M32 16a3 3 0 1 1-3-3 3 3 0 0 1 3 3" style="fill:#191919"/>
            </g>
        </g>
    </g>
</svg>
