<svg id="Icon_Login_Apple" xmlns="http://www.w3.org/2000/svg" width="102" height="102" viewBox="0 0 102 102">
    <defs>
        <style>
            .cls-2{fill:#fff;fill-rule:evenodd}
        </style>
    </defs>
    <circle id="타원_53" data-name="타원 53" cx="51" cy="51" r="51" style="fill:#0a0a0a"/>
    <g id="그룹_81" data-name="그룹 81" transform="translate(35.033 27.831)">
        <path id="패스_8116" data-name="패스 8116" class="cls-2" d="M238.964 396.857a8.8 8.8 0 0 0 2.05-6.253 8.645 8.645 0 0 0-5.767 2.984 8.07 8.07 0 0 0-2.057 6.053 7.323 7.323 0 0 0 5.774-2.784z" transform="translate(-217.398 -390.604)"/>
        <path id="패스_8117" data-name="패스 8117" class="cls-2" d="M244.647 415.069h-27.081 27.046v-.06a8.83 8.83 0 0 1-.665-4.778v-.06a8.059 8.059 0 0 1 2.646-4.953l.042-.032a11.75 11.75 0 0 1 1.364-1.129 8.87 8.87 0 0 0-7.23-3.847c-2.823-.237-5.754 1.788-7.335 1.741-1.529.047-3.838-1.781-6.276-1.665h-.024c-.055 0-.494.024-.494.024a9.2 9.2 0 0 0-7.72 4.87v.01h-.011v-.01a14.13 14.13 0 0 0-1.53 5v.083a24.167 24.167 0 0 0 .17 4.816.3.3 0 0 1 .011.062 24.075 24.075 0 0 0 1.242 4.821v.011a29.876 29.876 0 0 0 2.545 4.981v.008h.008c1.656 2.378 3.605 5.049 6.175 4.934 2.483-.093 3.4-1.648 6.387-1.624 2.989-.024 3.816 1.551 6.435 1.563 2.67-.114 4.325-2.49 5.982-4.872a26.064 26.064 0 0 0 2.533-4.989h.006c.052-.148.126-.375.18-.541-1.746-.511-3.716-2.823-4.406-4.364z" transform="translate(-217.324 -390.649)"/>
    </g>
</svg>
