<svg xmlns="http://www.w3.org/2000/svg" width="56" height="56" viewBox="0 0 56 56">
    <defs>
        <clipPath id="s6itj3ulga">
            <path data-name="사각형 2986" style="fill:none" d="M0 0h56v56H0z"/>
        </clipPath>
        <clipPath id="ywil01w4lb">
            <path data-name="사각형 2983" transform="translate(8 8)" style="fill:none" d="M0 0h40v40H0z"/>
        </clipPath>
        <clipPath id="ji5jpd5j2c">
            <path data-name="사각형 2984" transform="translate(8.342 10.186)" style="fill:none" d="M0 0h39.316v35.628H0z"/>
        </clipPath>
    </defs>
    <g data-name="그룹 4621" style="clip-path:url(#s6itj3ulga)">
        <g data-name="그룹 4620">
            <g data-name="그룹 4619" style="clip-path:url(#s6itj3ulga)">
                <g data-name="그룹 4612" style="opacity:.5">
                    <g data-name="그룹 4611">
                        <g data-name="그룹 4610" style="clip-path:url(#s6itj3ulga)">
                            <path data-name="사각형 2980" style="fill:none" d="M0 0h56v56H0z"/>
                        </g>
                    </g>
                </g>
                <g data-name="그룹 4615" style="opacity:.4">
                    <g data-name="그룹 4614">
                        <g data-name="그룹 4613" style="clip-path:url(#ywil01w4lb)">
                            <path data-name="사각형 2982" transform="translate(8 8)" style="fill:none" d="M0 0h40v40H0z"/>
                        </g>
                    </g>
                </g>
                <g data-name="그룹 4618" style="opacity:.3">
                    <g data-name="그룹 4617">
                        <g data-name="그룹 4616" style="clip-path:url(#ji5jpd5j2c)">
                            <path data-name="패스 11917" d="M44.35 13.493a11.292 11.292 0 0 0-15.97 0l-.38.38-.381-.38a11.292 11.292 0 0 0-15.97 15.97l.38.381L28 45.814l15.97-15.97.38-.381a11.292 11.292 0 0 0 0-15.97" style="fill:#fff"/>
                        </g>
                    </g>
                </g>
                <path data-name="패스 11918" d="M36.365 13.186a8.292 8.292 0 0 1 5.863 14.157l-.379.38L28 41.571 14.151 27.723l-.38-.381A8.292 8.292 0 1 1 25.5 15.615l.381.38L28 18.116l2.121-2.121.38-.38a8.241 8.241 0 0 1 5.864-2.429m0-3a11.257 11.257 0 0 0-7.985 3.307l-.38.381-.381-.381a11.293 11.293 0 0 0-15.97 15.971l.38.38L28 45.814l15.97-15.97.38-.38a11.293 11.293 0 0 0-7.985-19.278" style="fill:#fff"/>
            </g>
        </g>
    </g>
</svg>
