<svg id="Icon_Setting_Black" xmlns="http://www.w3.org/2000/svg" width="56" height="56" viewBox="0 0 56 56">
    <defs>
        <clipPath id="clip-path">
            <path id="사각형_1354" data-name="사각형 1354" style="fill:transparent" d="M0 0h56v56H0z"/>
        </clipPath>
        <clipPath id="clip-path-3">
            <path id="사각형_1352" data-name="사각형 1352" class="cls-2" d="M0 0h56v56H0z"/>
        </clipPath>
        <style>
            .cls-2{fill:none}.cls-3{clip-path:url(#clip-path)}.cls-6{fill:#191919}
        </style>
    </defs>
    <g id="Icon_Setting">
        <g id="그룹_2126" data-name="그룹 2126" class="cls-3">
            <g id="그룹_2125" data-name="그룹 2125">
                <g id="그룹_2124" data-name="그룹 2124" class="cls-3">
                    <g id="그룹_2123" data-name="그룹 2123" style="opacity:.5">
                        <g id="그룹_2122" data-name="그룹 2122">
                            <g id="그룹_2121" data-name="그룹 2121" style="clip-path:url(#clip-path-3)">
                                <path id="사각형_1351" data-name="사각형 1351" class="cls-2" d="M0 0h56v56H0z"/>
                            </g>
                        </g>
                    </g>
                    <g id="그룹_2454" data-name="그룹 2454">
                        <path id="패스_10804" data-name="패스 10804" class="cls-6" d="M31.372 12.3v3.3a12.709 12.709 0 0 1 6.316 3.649l2.856-1.649 2.94 5.094-2.847 1.644a12.657 12.657 0 0 1 0 7.3l2.847 1.644-2.94 5.094-2.856-1.649a12.709 12.709 0 0 1-6.316 3.649v3.295H25.49v-3.298a12.713 12.713 0 0 1-6.316-3.649l-2.855 1.649-2.941-5.094 2.847-1.644a12.68 12.68 0 0 1 0-7.3l-2.847-1.644 2.941-5.094 2.855 1.649A12.713 12.713 0 0 1 25.49 15.6v-3.3zm3-3H22.49v4.114a15.686 15.686 0 0 0-3.7 2.141L17.819 15l-2.6-1.5-1.5 2.6-2.939 5.089-1.5 2.6 2.6 1.5.958.553a15.6 15.6 0 0 0 0 4.288l-.958.553-2.6 1.5 1.5 2.6 2.941 5.094 1.5 2.6 2.6-1.5.966-.558a15.651 15.651 0 0 0 3.7 2.141v4.114h11.885v-4.12a15.632 15.632 0 0 0 3.7-2.141l.967.558 2.6 1.5 1.5-2.6 2.941-5.094 1.5-2.6-2.6-1.5-.958-.553a15.5 15.5 0 0 0 0-4.288l.958-.553 2.6-1.5-1.5-2.6-2.941-5.094-1.5-2.6-2.6 1.5-.967.558a15.666 15.666 0 0 0-3.7-2.141V9.3z"/>
                        <path id="패스_10805" data-name="패스 10805" class="cls-6" d="M28.431 24.063a3.921 3.921 0 1 1-3.921 3.921 3.921 3.921 0 0 1 3.921-3.921m0-3a6.921 6.921 0 1 0 6.921 6.921 6.929 6.929 0 0 0-6.921-6.921"/>
                    </g>
                </g>
            </g>
        </g>
    </g>
</svg>
