<svg xmlns="http://www.w3.org/2000/svg" width="102" height="102" viewBox="0 0 102 102">
    <circle data-name="타원 52" cx="51" cy="51" r="51" style="fill:#f3f3f3"/>
    <g data-name="그룹 80">
        <path data-name="패스 8112" d="M255.67 294.957a14.447 14.447 0 0 1 13.707-9.89 12.417 12.417 0 0 1 8.893 3.368l7.035-6.89a24.012 24.012 0 0 0-37.455 7.323z" transform="translate(-217.053 -248.574)" style="fill:#d22c27"/>
        <path data-name="패스 8113" d="M252.232 322.6a14.441 14.441 0 0 1 0-9.12l-7.821-6.089a24.046 24.046 0 0 0 0 21.286z" transform="translate(-213.612 -267.098)" style="fill:#f3a600"/>
        <path data-name="패스 8114" d="M321.243 322.549h-22.43v9.374h12.854a10.581 10.581 0 0 1-4.793 7.18l7.643 5.95c5.31-4.822 8.338-12.506 6.726-22.504z" transform="translate(-246.655 -275.901)" style="fill:#2667b1"/>
        <path data-name="패스 8115" d="M269.376 363.119a23.023 23.023 0 0 0 15.539-5.8l-7.643-5.95a14.709 14.709 0 0 1-21.6-7.7l-7.825 6.078a24.01 24.01 0 0 0 21.529 13.372z" transform="translate(-217.053 -288.171)" style="fill:#3d903e"/>
    </g>
</svg>
