<svg xmlns="http://www.w3.org/2000/svg" width="76" height="76" viewBox="0 0 76 76">
    <defs>
        <clipPath id="lun8fgqp4a">
            <path data-name="사각형 3216" style="fill:none" d="M0 0h76v76H0z"/>
        </clipPath>
    </defs>
    <g data-name="그룹 5477" style="clip-path:url(#lun8fgqp4a)">
        <g data-name="그룹 5476">
            <g data-name="그룹 5475" style="clip-path:url(#lun8fgqp4a)">
                <path data-name="패스 12022" d="M49.353 18.824a10.325 10.325 0 0 1 7.3 17.628l-.515.515L38 55.1 19.863 36.969l-.517-.518a10.326 10.326 0 0 1 14.6-14.6l.516.516L38 25.9l3.536-3.537.515-.516a10.262 10.262 0 0 1 7.3-3.024m0-5a15.277 15.277 0 0 0-10.837 4.489l-.514.517-.516-.516A15.326 15.326 0 0 0 15.81 39.987l.516.516L38 62.177 59.674 40.5l.516-.516a15.326 15.326 0 0 0-10.837-26.16" style="fill:#191919"/>
            </g>
        </g>
    </g>
</svg>
