<svg id="Icon_NowCoupon" xmlns="http://www.w3.org/2000/svg" width="90" height="68" viewBox="0 0 90 68">
    <defs>
        <clipPath id="clip-path">
            <path id="사각형_879" data-name="사각형 879" style="fill:transparent" d="M0 0h90v68H0z"/>
        </clipPath>
        <clipPath id="clip-path-3">
            <path id="사각형_877" data-name="사각형 877" class="cls-2" d="M0 0h90v68H0z"/>
        </clipPath>
        <style>
            .cls-2{fill:none}.cls-3{clip-path:url(#clip-path)}.cls-7{fill:#fff}
        </style>
    </defs>
    <g id="그룹_1327" data-name="그룹 1327" class="cls-3">
        <g id="그룹_1326" data-name="그룹 1326">
            <g id="그룹_1325" data-name="그룹 1325" class="cls-3">
                <g id="그룹_1324" data-name="그룹 1324" style="opacity:.5">
                    <g id="그룹_1323" data-name="그룹 1323">
                        <g id="그룹_1322" data-name="그룹 1322" style="clip-path:url(#clip-path-3)">
                            <path id="사각형_876" data-name="사각형 876" class="cls-2" d="M0 0h90v68H0z"/>
                        </g>
                    </g>
                </g>
                <path id="패스_9703" data-name="패스 9703" d="M79.63 35.4a6.732 6.732 0 0 1 5.832-6.671V13.872A2.871 2.871 0 0 0 82.593 11H9.37a2.871 2.871 0 0 0-2.87 2.872v14.861a6.731 6.731 0 0 1 0 13.342v14.561a2.871 2.871 0 0 0 2.87 2.872h73.223a2.871 2.871 0 0 0 2.869-2.872V42.074A6.732 6.732 0 0 1 79.63 35.4" transform="translate(-.981 -1.65)" style="fill:#6a49f6"/>
                <path id="패스_9704" data-name="패스 9704" class="cls-7" d="m43.36 46.516-.133-.133a2.6 2.6 0 0 1 0-3.678l13.457-13.472a2.6 2.6 0 0 1 3.673 0l.134.133a2.6 2.6 0 0 1 0 3.678L47.033 46.516a2.6 2.6 0 0 1-3.673 0" transform="translate(-6.41 -4.271)"/>
                <path id="패스_9705" data-name="패스 9705" class="cls-7" d="M47.82 33.832a4.04 4.04 0 1 1 0-5.717 4.035 4.035 0 0 1 0 5.717" transform="translate(-6.178 -4.04)"/>
                <path id="패스_9706" data-name="패스 9706" class="cls-7" d="M63.513 49.525a4.04 4.04 0 1 1 0-5.717 4.035 4.035 0 0 1 0 5.717" transform="translate(-8.546 -6.394)"/>
            </g>
        </g>
    </g>
</svg>
