<svg xmlns="http://www.w3.org/2000/svg" width="56" height="56" viewBox="0 0 56 56">
    <defs>
        <clipPath id="vw54hhajva">
            <path data-name="사각형 1896" style="fill:none" d="M0 0h56v56H0z"/>
        </clipPath>
        <clipPath id="75ls7fwrvb">
            <path data-name="사각형 1894" transform="translate(8 8)" style="fill:none" d="M0 0h40v40H0z"/>
        </clipPath>
    </defs>
    <g data-name="그룹 972">
        <path data-name="사각형 637" style="fill:none" d="M0 0h56v56H0z"/>
        <path data-name="사각형 638" transform="translate(8 8)" style="opacity:.4;fill:none" d="M0 0h40v40H0z"/>
    </g>
    <g data-name="Icon_Research">
        <g data-name="그룹 972">
            <path data-name="사각형 637" style="fill:none" d="M0 0h56v56H0z"/>
            <path data-name="사각형 638" transform="translate(8 8)" style="opacity:.4;fill:none" d="M0 0h40v40H0z"/>
        </g>
        <g data-name="그룹 2985">
            <g data-name="그룹 2984" style="clip-path:url(#vw54hhajva)">
                <g data-name="그룹 2983">
                    <g data-name="그룹 2982" style="clip-path:url(#vw54hhajva)">
                        <g data-name="그룹 2978" style="opacity:.5">
                            <g data-name="그룹 2977">
                                <g data-name="그룹 2976" style="clip-path:url(#vw54hhajva)">
                                    <path data-name="사각형 1891" style="fill:none" d="M0 0h56v56H0z"/>
                                </g>
                            </g>
                        </g>
                        <g data-name="그룹 2981" style="opacity:.4">
                            <g data-name="그룹 2980">
                                <g data-name="그룹 2979" style="clip-path:url(#75ls7fwrvb)">
                                    <path data-name="사각형 1893" transform="translate(8 8)" style="fill:none" d="M0 0h40v40H0z"/>
                                </g>
                            </g>
                        </g>
                        <path data-name="패스 11270" d="M25.75 12.75a13 13 0 1 1-13 13 13.015 13.015 0 0 1 13-13m0-3a16 16 0 1 0 16 16 16 16 0 0 0-16-16" style="fill:#6a49f6"/>
                        <path data-name="선 495" transform="translate(36.25 36.25)" style="stroke:#6a49f6;stroke-miterlimit:10;stroke-width:3px;fill:none" d="m0 0 10 10"/>
                    </g>
                </g>
            </g>
        </g>
    </g>
</svg>
