<svg xmlns="http://www.w3.org/2000/svg" width="56" height="56" viewBox="0 0 56 56">
    <g data-name="그룹 6132">
        <path data-name="사각형 3457" transform="translate(-.001)" style="opacity:.5;fill:none" d="M0 0h56v56H0z"/>
        <path data-name="사각형 3458" transform="translate(7.999 8)" style="opacity:.4;fill:none" d="M0 0h40v40H0z"/>
    </g>
    <g data-name="패스 12614" style="stroke-miterlimit:10;fill:none">
        <path d="M1218.952 1768.127a11.293 11.293 0 0 0-15.97 0l-.381.38-.38-.38a11.293 11.293 0 1 0-15.97 15.97l.38.381 15.97 15.97 15.971-15.97.38-.381a11.293 11.293 0 0 0 0-15.97z" style="stroke:none" transform="translate(-1174.602 -1754.634)"/>
        <path d="M1194.236 1767.82a8.238 8.238 0 0 0-5.864 2.428 8.238 8.238 0 0 0-2.429 5.864 8.24 8.24 0 0 0 2.432 5.867l.377.378 13.85 13.848 14.229-14.23a8.238 8.238 0 0 0 2.429-5.863 8.238 8.238 0 0 0-2.43-5.864 8.239 8.239 0 0 0-5.863-2.428 8.24 8.24 0 0 0-5.867 2.431l-2.502 2.496-2.498-2.499a8.238 8.238 0 0 0-5.864-2.428m0-3c2.89 0 5.78 1.102 7.985 3.307l.38.38.381-.38c4.41-4.41 11.56-4.41 15.97 0s4.41 11.56 0 15.97l-.38.381-15.971 15.97-16.35-16.351c-4.41-4.41-4.41-11.56 0-15.97a11.257 11.257 0 0 1 7.985-3.307z" style="fill:#fff;stroke:none" transform="translate(-1174.602 -1754.634)"/>
    </g>
</svg>
