<svg xmlns="http://www.w3.org/2000/svg" width="56" height="56" viewBox="0 0 56 56">
    <defs>
        <clipPath id="b1y3j50pga">
            <path data-name="사각형 3864" style="fill:none" d="M0 0h56v56H0z"/>
        </clipPath>
        <clipPath id="02cxjbm0ib">
            <path data-name="사각형 3862" transform="translate(8 8)" style="fill:none" d="M0 0h40v40H0z"/>
        </clipPath>
    </defs>
    <g data-name="그룹 6771" style="clip-path:url(#b1y3j50pga)">
        <g data-name="그룹 6770">
            <g data-name="그룹 6769" style="clip-path:url(#b1y3j50pga)">
                <g data-name="그룹 6765" style="opacity:.5">
                    <g data-name="그룹 6764">
                        <g data-name="그룹 6763" style="clip-path:url(#b1y3j50pga)">
                            <path data-name="사각형 3859" style="fill:none" d="M0 0h56v56H0z"/>
                        </g>
                    </g>
                </g>
                <g data-name="그룹 6768" style="opacity:.4">
                    <g data-name="그룹 6767">
                        <g data-name="그룹 6766" style="clip-path:url(#02cxjbm0ib)">
                            <path data-name="사각형 3861" transform="translate(8 8)" style="fill:none" d="M0 0h40v40H0z"/>
                        </g>
                    </g>
                </g>
                <path data-name="패스 12992" d="M30.941 12.316v3.3a12.709 12.709 0 0 1 6.316 3.649l2.856-1.649 2.94 5.094-2.847 1.644a12.657 12.657 0 0 1 0 7.3l2.847 1.644-2.94 5.094-2.856-1.652a12.709 12.709 0 0 1-6.316 3.649v3.295h-5.882v-3.295a12.713 12.713 0 0 1-6.316-3.649l-2.855 1.649-2.941-5.094 2.847-1.644a12.68 12.68 0 0 1 0-7.3L12.947 22.7l2.941-5.094 2.855 1.649a12.713 12.713 0 0 1 6.316-3.649v-3.3zm3-3H22.059v4.114a15.686 15.686 0 0 0-3.7 2.141l-.966-.558-2.6-1.5-1.5 2.6-2.944 5.087-1.5 2.6 2.6 1.5.958.553a15.542 15.542 0 0 0-.15 2.147 15.7 15.7 0 0 0 .148 2.144l-.958.553-2.6 1.5 1.5 2.6 2.941 5.094 1.5 2.6 2.6-1.5.966-.558a15.651 15.651 0 0 0 3.7 2.141v4.114h11.887V42.57a15.632 15.632 0 0 0 3.7-2.141l.967.558 2.6 1.5 1.5-2.6 2.941-5.094 1.5-2.6-2.6-1.5-.957-.553a15.6 15.6 0 0 0 0-4.288l.957-.553 2.6-1.5-1.5-2.6-2.941-5.094-1.5-2.6-2.6 1.5-.967.558a15.666 15.666 0 0 0-3.7-2.141V9.316z" style="fill:#fff"/>
                <path data-name="패스 12993" d="M28 24.079A3.921 3.921 0 1 1 24.079 28 3.92 3.92 0 0 1 28 24.079m0-3A6.921 6.921 0 1 0 34.921 28 6.929 6.929 0 0 0 28 21.079" style="fill:#fff"/>
            </g>
        </g>
    </g>
</svg>
