<svg xmlns="http://www.w3.org/2000/svg" width="60" height="48.199" viewBox="0 0 60 48.199">
    <path data-name="패스 11121" d="M24.234 47.2C10.872 47.2 0 36.617 0 23.6S10.872 0 24.234 0H60v6.911H24.234A16.941 16.941 0 0 0 7.093 23.6a16.941 16.941 0 0 0 17.141 16.7 16.941 16.941 0 0 0 17.142-16.7 31.434 31.434 0 0 0-1.7-8.217l7.224-.143a22.954 22.954 0 0 1 1.569 8.36c0 13.013-10.872 23.6-24.234 23.6" transform="translate(0 -.004)" style="fill:#6a49f6"/>
    <g data-name="그룹 2834">
        <path data-name="패스 11120" d="M1061.422 1037.336a9.671 9.671 0 1 1 9.927-9.668 9.812 9.812 0 0 1-9.927 9.668m0-12.685a3.018 3.018 0 1 0 3.1 3.017 3.061 3.061 0 0 0-3.1-3.017" transform="translate(-1036.872 -1004.215)" style="fill:#6a49f6"/>
        <path data-name="사각형 1765" transform="translate(0 .199)" style="fill:none" d="M0 0h60v48H0z"/>
    </g>
</svg>
